<?xml version="1.0" encoding="UTF-8" standalone="no"?>
<svg
   xmlns:dc="http://purl.org/dc/elements/1.1/"
   xmlns:cc="http://creativecommons.org/ns#"
   xmlns:rdf="http://www.w3.org/1999/02/22-rdf-syntax-ns#"
   xmlns:svg="http://www.w3.org/2000/svg"
   xmlns="http://www.w3.org/2000/svg"
   xmlns:sodipodi="http://sodipodi.sourceforge.net/DTD/sodipodi-0.dtd"
   xmlns:inkscape="http://www.inkscape.org/namespaces/inkscape"
   inkscape:version="1.0 (4035a4f, 2020-05-01)"
   sodipodi:docname="bat.svg"
   id="svg25"
   version="1.1"
   height="778"
   width="1280"
   style="fill-opacity:1; color-rendering:auto; color-interpolation:auto; stroke:black; text-rendering:auto; stroke-linecap:square; stroke-miterlimit:10; stroke-opacity:1; shape-rendering:auto; fill:black; stroke-dasharray:none; font-weight:normal; stroke-width:1; font-family:'Dialog'; font-style:normal; stroke-linejoin:miter; font-size:12; stroke-dashoffset:0; image-rendering:auto;">
  <metadata
     id="metadata29">
    <rdf:RDF>
      <cc:Work
         rdf:about="">
        <dc:format>image/svg+xml</dc:format>
        <dc:type
           rdf:resource="http://purl.org/dc/dcmitype/StillImage" />
      </cc:Work>
    </rdf:RDF>
  </metadata>
  <sodipodi:namedview
     inkscape:current-layer="svg25"
     inkscape:window-maximized="0"
     inkscape:window-y="0"
     inkscape:window-x="0"
     inkscape:cy="334.8315"
     inkscape:cx="505.85481"
     inkscape:zoom="0.44636116"
     showgrid="false"
     id="namedview27"
     inkscape:window-height="778"
     inkscape:window-width="1039"
     inkscape:pageshadow="2"
     inkscape:pageopacity="0"
     guidetolerance="10"
     gridtolerance="10"
     objecttolerance="10"
     borderopacity="1"
     bordercolor="#666666"
     pagecolor="#ffffff"
     inkscape:document-rotation="0" />
  <!--Generated by Alchemy (http://al.chemy.org) with Batik SVG Generator-->
  <defs
     id="genericDefs" />
  <path
     inkscape:export-ydpi="96"
     inkscape:export-xdpi="96"
     id="path97"
     d="m 2.0601011,57.535381 c 0.302406,-1.55254 3.8364,-8.90854 6.293672,-13.10025 2.0544629,-3.50459 7.4743289,-11.7483 10.3996859,-15.81811 1.608478,-2.23774 2.666637,-3.75331 4.530786,-6.48931 0.92078,-1.35141 2.05224,-2.93908 2.51436,-3.52816 1.768,-2.25374 7.71759,-10.8263696 8.10723,-11.6815396 l 0.13571,-0.29785 0.51329,0.4966 c 0.79486,0.76902 3.25149,2.34766 4.9235,3.1638496 0.83164,0.40597 2.27756,0.97563 3.21315,1.26592 0.93559,0.29028 2.43821,0.77346 3.33916,1.07372 2.37751,0.79237 6.26766,2.00822 7.43435,2.32358 0.55442,0.14986 1.78811,0.52466 2.74152,0.83289 0.95342,0.30824 2.31428,0.69853 3.02415,0.86733 0.70986,0.1688 1.71593,0.454 2.2357,0.63378 0.51978,0.17978 1.8113,0.52236 2.87005,0.76129 1.5289,0.34503 2.19654,0.43442 3.24465,0.43442 1.11365,0 1.31965,-0.0308 1.31965,-0.19729 0,-0.40218 -0.25053,-0.6523 -0.7302,-0.72901 -0.61583,-0.0985 -0.93574,-0.44951 -1.02601,-1.12583 -0.0622,-0.46586 -0.11371,-0.53591 -0.42014,-0.57113 -0.61857,-0.0711 -0.76731,-0.48705 -0.67414,-1.88525 0.0449,-0.67362 0.145,-1.71623 0.22247,-2.31692 0.12176,-0.94407 0.17707,-1.10188 0.40789,-1.16384 0.60992,-0.16369 0.64359,-0.11814 2.07733,2.81093 0.77697,1.58732 1.43449,2.99934 1.46116,3.13783 0.0898,0.46624 0.45224,1.04331 0.59851,0.95291 0.0888,-0.0549 0.11579,-0.0194 0.0719,0.0949 -0.045,0.11723 0.01,0.18267 0.15328,0.18267 0.14335,0 0.19827,-0.0654 0.15328,-0.18267 -0.0438,-0.11424 -0.0169,-0.14979 0.072,-0.0949 0.14627,0.0904 0.50872,-0.48667 0.59851,-0.95291 0.0267,-0.13849 0.68419,-1.55051 1.46116,-3.13783 1.43374,-2.92907 1.46741,-2.97462 2.07732,-2.81093 0.23083,0.062 0.28614,0.21977 0.4079,1.16384 0.0775,0.60069 0.17758,1.6433 0.22247,2.31692 0.0932,1.3982 -0.0556,1.81417 -0.67414,1.88525 -0.30643,0.0352 -0.35796,0.10527 -0.42014,0.57113 -0.0903,0.67632 -0.41018,1.02736 -1.02601,1.12583 -0.47967,0.0767 -0.73021,0.32683 -0.73021,0.72901 0,0.16649 0.20601,0.19729 1.31966,0.19729 1.0481,0 1.71575,-0.0894 3.24465,-0.43442 1.05875,-0.23893 2.35027,-0.58151 2.87004,-0.76129 0.51978,-0.17978 1.52585,-0.46498 2.23571,-0.63378 0.70987,-0.1688 2.07073,-0.55909 3.02415,-0.86733 0.95341,-0.30823 2.1871,-0.68303 2.74152,-0.83289 1.16669,-0.31536 5.05684,-1.53121 7.43435,-2.32358 0.90094,-0.30026 2.40356,-0.78344 3.33916,-1.07372 0.935595,-0.29029 2.381515,-0.85995 3.213155,-1.26592 1.67201,-0.8161896 4.12864,-2.3948296 4.9235,-3.1638496 l 0.51329,-0.4966 0.13571,0.29785 c 0.38964,0.85517 6.33923,9.4277996 8.10723,11.6815396 0.46212,0.58908 1.59357,2.17675 2.51435,3.52816 1.86416,2.736 2.92232,4.25157 4.5308,6.48931 2.92535,4.06981 8.34522,12.31352 10.39968,15.81811 2.45727,4.19171 5.99127,11.54771 6.29367,13.10025 l 0.0859,0.44102 -0.79623,-0.81904 c -0.43792,-0.45047 -1.13643,-1.26186 -1.55225,-1.8031 -0.41582,-0.54124 -1.43307,-1.59023 -2.26054,-2.33111 -0.82748,-0.74087 -2.27339,-2.07922 -3.21315,-2.97411 -3.44674,-3.28216 -4.87854,-4.51697 -6.43387,-5.54865 -3.22841,-2.14147 -4.84163,-2.91877 -8.3794,-4.03747 -4.96324,-1.56947 -7.43903,-2.41649 -10.33249,-3.53494 -1.66327,-0.64294 -3.64787,-1.40578 -4.4102,-1.69521 -2.1726,-0.82484 -4.501185,-1.84186 -6.489315,-2.83424 -2.3517,-1.17386 -5.06886,-2.34509 -6.42098,-2.76776 -0.58616,-0.18323 -1.68797,-0.3965 -2.44849,-0.47393 -1.27642,-0.12996 -1.41733,-0.17129 -1.8324,-0.53753 -0.81326,-0.71756 -1.99538,-1.57232 -2.97761,-2.15304 -0.53155,-0.31425 -1.2568,-0.76691 -1.61168,-1.0059 -0.35487,-0.23899 -0.68445,-0.43452 -0.73238,-0.43452 -0.0479,0 -0.4258,-0.20173 -0.8397,-0.44829 -0.99063,-0.59011 -2.56816,-0.91403 -4.93579,-1.01348 -2.06514,-0.0867 -2.29137,-0.0189 -2.31664,0.69482 l -0.0145,0.40858 -0.53552,-0.60835 -0.53553,-0.60835 -0.53552,0.60835 -0.53553,0.60835 -0.0145,-0.40858 c -0.0253,-0.71371 -0.2515,-0.78156 -2.31665,-0.69482 -2.36762,0.0995 -3.94515,0.42337 -4.93578,1.01348 -0.4139,0.24656 -0.79177,0.44829 -0.8397,0.44829 -0.0479,0 -0.37751,0.19553 -0.73238,0.43452 -0.35488,0.23899 -1.08014,0.69165 -1.61168,1.0059 -0.98223,0.58072 -2.16436,1.43548 -2.97761,2.15304 -0.41507,0.36624 -0.55598,0.40757 -1.8324,0.53753 -0.76052,0.0774 -1.86234,0.2907 -2.44849,0.47393 -1.35212,0.42267 -4.06928,1.5939 -6.42098,2.76776 -1.98814,0.99238 -4.31671,2.0094 -6.48931,2.83424 -0.76233,0.28943 -2.74693,1.05227 -4.41021,1.69521 -2.89345,1.11845 -5.36924,1.96547 -10.33248,3.53494 -3.537772,1.1187 -5.150987,1.896 -8.379396,4.03747 -1.555326,1.03168 -2.987132,2.26649 -6.4338699,5.54865 -0.939758,0.89489 -2.385676,2.23324 -3.213152,2.97411 -0.827476,0.74088 -1.844718,1.78987 -2.260537,2.33111 -0.415819,0.54124 -1.114336,1.35263 -1.552259,1.8031 l -0.796223,0.81904 z M 70.363165,17.560001 c -0.0446,-0.22524 -0.24977,-0.66468 -0.45589,-0.97655 -0.20612,-0.31186 -0.54624,-0.90724 -0.75582,-1.32306 -0.38925,-0.77226 -1.23221,-1.86392 -1.07031,-1.38606 0.047,0.1386 0.2001,0.79068 0.34031,1.44906 0.24653,1.15767 0.27818,1.2209 0.96168,1.92159 0.81969,0.84031 1.10207,0.93108 0.98003,0.31502 z m 2.33934,-0.31502 c 0.6835,-0.70069 0.71515,-0.76392 0.96168,-1.92159 0.1402,-0.65838 0.29334,-1.31046 0.34031,-1.44906 0.1619,-0.47786 -0.68106,0.6138 -1.07031,1.38606 -0.20958,0.41582 -0.54971,1.0112 -0.75582,1.32306 -0.44473,0.67289 -0.62986,1.38607 -0.35982,1.38607 0.0975,0 0.49525,-0.32604 0.88396,-0.72454 z m -5.10133,15.46723 c 0.0413,-0.24256 0.17973,-0.78123 0.30766,-1.19705 0.12793,-0.41582 0.23333,-0.96261 0.23422,-1.21508 0.003,-0.82778 0.39609,-2.41618 0.9156,-3.69916 0.53452,-1.32004 0.85019,-1.9037 0.85,-1.57161 -6.3e-4,1.11268 -0.3045,3.0269 -0.58654,3.69494 -0.17992,0.42614 -0.51381,1.28513 -0.74197,1.90886 -0.22816,0.62373 -0.55866,1.44592 -0.73443,1.82709 -0.27623,0.59897 -0.30941,0.63318 -0.24454,0.25201 z m 6.559,-0.41442 c -0.18514,-0.43045 -0.50224,-1.23688 -0.70467,-1.79207 -0.20242,-0.55519 -0.51454,-1.35748 -0.69358,-1.78286 -0.2803,-0.66597 -0.58432,-2.58564 -0.58495,-3.69355 -2.5e-4,-0.33251 0.31582,0.25231 0.84924,1.57161 0.54773,1.3547 0.74979,2.13978 0.90806,3.52817 0.0553,0.48512 0.22126,1.33086 0.3688,1.87942 0.14754,0.54855 0.25148,1.01414 0.23098,1.03464 -0.0205,0.0205 -0.18875,-0.31491 -0.37388,-0.74536 z"
     style="fill:#3771c8;stroke:none;stroke-width:0.126006" />
</svg>
