<?xml version="1.0" encoding="UTF-8" standalone="no"?>
<svg
   xmlns:dc="http://purl.org/dc/elements/1.1/"
   xmlns:cc="http://creativecommons.org/ns#"
   xmlns:rdf="http://www.w3.org/1999/02/22-rdf-syntax-ns#"
   xmlns:svg="http://www.w3.org/2000/svg"
   xmlns="http://www.w3.org/2000/svg"
   xmlns:sodipodi="http://sodipodi.sourceforge.net/DTD/sodipodi-0.dtd"
   xmlns:inkscape="http://www.inkscape.org/namespaces/inkscape"
   inkscape:export-ydpi="96"
   inkscape:export-xdpi="96"
   inkscape:export-filename="/Users/leannesuenfa/Documents/GitHub/cart253/Project/midterm/assets/images/moth.png"
   inkscape:version="1.0 (4035a4f, 2020-05-01)"
   sodipodi:docname="moth.svg"
   id="svg37"
   version="1.1"
   height="778"
   width="1280"
   style="fill-opacity:1; color-rendering:auto; color-interpolation:auto; stroke:black; text-rendering:auto; stroke-linecap:square; stroke-miterlimit:10; stroke-opacity:1; shape-rendering:auto; fill:black; stroke-dasharray:none; font-weight:normal; stroke-width:1; font-family:'Dialog'; font-style:normal; stroke-linejoin:miter; font-size:12; stroke-dashoffset:0; image-rendering:auto;">
  <metadata
     id="metadata41">
    <rdf:RDF>
      <cc:Work
         rdf:about="">
        <dc:format>image/svg+xml</dc:format>
        <dc:type
           rdf:resource="http://purl.org/dc/dcmitype/StillImage" />
      </cc:Work>
    </rdf:RDF>
  </metadata>
  <sodipodi:namedview
     inkscape:current-layer="svg37"
     inkscape:window-maximized="0"
     inkscape:window-y="0"
     inkscape:window-x="0"
     inkscape:cy="271.49889"
     inkscape:cx="298.83869"
     inkscape:zoom="0.67096146"
     showgrid="false"
     id="namedview39"
     inkscape:window-height="778"
     inkscape:window-width="1280"
     inkscape:pageshadow="2"
     inkscape:pageopacity="0"
     guidetolerance="10"
     gridtolerance="10"
     objecttolerance="10"
     borderopacity="1"
     bordercolor="#666666"
     pagecolor="#ffffff"
     inkscape:document-rotation="0" />
  <!--Generated by Alchemy (http://al.chemy.org) with Batik SVG Generator-->
  <defs
     id="genericDefs" />
  <path
     d="m 19.740732,25.495148 c 0.0346,-1.35206 0.0297,-2.84641 1.05886,-3.8734 0.32606,-0.97894 2.53936,-1.44463 2.21739,-2.10096 -2.91216,-1.05507 -5.76464,-2.31644 -8.29484,-4.1247 -3.57251,-2.21351 -6.09798,-5.7880202 -7.78887,-9.5712902 -1.05436,-1.67925 0.56007,-2.37652 1.86601,-1.41387 2.55825,0.82447 5.11288,1.68736 7.47985,2.9822 1.93493,0.91911 3.8018,2.10151 5.03106,3.9021202 1.36102,1.72794 2.72123,3.46044 3.73144,5.42601 0.41286,1.39519 0.94429,0.54289 1.337,-0.33667 1.22726,-2.29292 2.89016,-4.30712 4.55768,-6.28801 1.8997,-1.9991502 4.58129,-2.9467802 7.01581,-4.1143402 1.93468,-0.79489 3.95598,-1.3643 5.92741,-2.05673 1.64735,0.40757 -0.0526,2.74435 -0.48474,3.76276 -1.73599,3.1713602 -4.09142,6.0853802 -7.24128,7.9394302 -2.4384,1.725 -5.20284,2.88367 -7.99175,3.91014 -0.18926,0.63358 1.94227,1.10154 2.27257,2.1042 1.02916,1.02837 1.05073,2.52254 1.02996,3.87705 -1.69078,-0.37341 -2.67665,-1.99734 -3.94277,-3.04881 -0.88186,-0.95531 -2.09305,-2.32444 -3.06911,-0.70873 -1.3844,1.18676 -2.50326,2.73864 -4.1287,3.60627 -0.16499,-0.0164 -0.41566,0.2447 -0.58298,0.12733 z"
     style="fill:#ffaacc;stroke:none;stroke-width:0.0860144"
     id="path138" />
</svg>
