<?xml version="1.0" encoding="UTF-8" standalone="no"?>
<svg
   xmlns:dc="http://purl.org/dc/elements/1.1/"
   xmlns:cc="http://creativecommons.org/ns#"
   xmlns:rdf="http://www.w3.org/1999/02/22-rdf-syntax-ns#"
   xmlns:svg="http://www.w3.org/2000/svg"
   xmlns="http://www.w3.org/2000/svg"
   xmlns:sodipodi="http://sodipodi.sourceforge.net/DTD/sodipodi-0.dtd"
   xmlns:inkscape="http://www.inkscape.org/namespaces/inkscape"
   inkscape:version="1.0 (4035a4f, 2020-05-01)"
   sodipodi:docname="fish1.svg"
   id="svg41"
   version="1.1"
   height="778"
   width="1280"
   style="fill-opacity:1; color-rendering:auto; color-interpolation:auto; stroke:black; text-rendering:auto; stroke-linecap:square; stroke-miterlimit:10; stroke-opacity:1; shape-rendering:auto; fill:black; stroke-dasharray:none; font-weight:normal; stroke-width:1; font-family:'Dialog'; font-style:normal; stroke-linejoin:miter; font-size:12; stroke-dashoffset:0; image-rendering:auto;">
  <metadata
     id="metadata45">
    <rdf:RDF>
      <cc:Work
         rdf:about="">
        <dc:format>image/svg+xml</dc:format>
        <dc:type
           rdf:resource="http://purl.org/dc/dcmitype/StillImage" />
      </cc:Work>
    </rdf:RDF>
  </metadata>
  <sodipodi:namedview
     inkscape:current-layer="g59"
     inkscape:window-maximized="0"
     inkscape:window-y="0"
     inkscape:window-x="0"
     inkscape:cy="481.22434"
     inkscape:cx="633.65179"
     inkscape:zoom="0.35001189"
     showgrid="false"
     id="namedview43"
     inkscape:window-height="737"
     inkscape:window-width="1059"
     inkscape:pageshadow="2"
     inkscape:pageopacity="0"
     guidetolerance="10"
     gridtolerance="10"
     objecttolerance="10"
     borderopacity="1"
     bordercolor="#666666"
     pagecolor="#ffffff" />
  <!--Generated by Alchemy (http://al.chemy.org) with Batik SVG Generator-->
  <defs
     id="genericDefs" />
  <g
     id="g39">
    <g
       id="g37"
       style="fill:white; text-rendering:optimizeLegibility; stroke:white;">
      <g
         transform="rotate(-90,452.8635,456.57089)"
         id="g59">
        <path
           d="m 577.42954,181.71749 v -1 l -1,-1 v -1 q 0,0 -0.5,-2.5 -0.5,-2.5 -1,-5 -0.5,-2.5 -1,-6.5 -0.5,-4 -1,-7 -0.5,-3 -0.5,-6 0,-3 -0.5,-6 -0.5,-3 -1,-6.5 -0.5,-3.5 -1,-8 -0.5,-4.5 -1,-9 -0.5,-4.5 -0.5,-8 0,-3.5 0,-6.5 0,-3 0,-7 0,-4.000003 0,-8.000003 0,-4 0,-7 0,-3 0,-6 0,-3 0.5,-6.5 0.5,-3.5 1.5,-6 1,-2.5 2,-5 1,-2.5 2.5,-5 1.5,-2.5 3,-5 1.5,-2.5 4,-5.5 2.5,-3 4.5,-5 2,-2 4.5,-3.5 2.5,-1.5 5,-3 2.5,-1.5 5,-3 2.5,-1.5 5,-3.5 2.5,-2 5,-3 2.5,-1 5,-2.5 2.5,-1.5 4,1.5 1.5,3 2,5.5 0.5,2.5 1,5 0.5,2.5 1.5,5 1,2.5 2.5,6.5 1.5,4 2,6.5 0.5,2.5 2.5,7 2,4.5 2.5,7 0.5,2.5 1,5 0.5,2.5 1.5,5 1,2.5 2.5,7 1.5,4.5 2.5,9 1,4.5 2,8.500003 1,4 2,8 1,4 2,7.5 1,3.5 2,7.5 1,4 1.5,7.5 0.5,3.5 1,6.5 0.5,3 1,5.5 0.5,2.5 1,5.5 0.5,3 1,6 0.5,3 0.5,6.5 0,3.5 0,6.5 0,3 0,6 0,3 0,7.5 0,4.5 -1,7 -1,2.5 -1.5,5.5 -0.5,3 -1.5,5.5 -1,2.5 -2.5,6.5 -1.5,4 -2.5,6.5 -1,2.5 -2,5 -1,2.5 -2,5 -1,2.5 -2,5 -1,2.5 -2.5,5 -1.5,2.5 -3,5 -1.5,2.5 -3.5,5 -2,2.5 -4,5.5 -2,3 -3.5,5.5 -1.5,2.5 -3.5,5 -2,2.5 -4,5 -2,2.5 -3.5,5 -1.5,2.5 -3.5,5 -2,2.5 -4,4.5 -2,2 -3,-0.5 -1,-2.5 -1.5,-5 -0.5,-2.5 -2.5,-6.5 -2,-4 -3.5,-7.5 -1.5,-3.5 -4,-7.5 -2.5,-4 -4,-6.5 -1.5,-2.5 -3.5,-5.5 -2,-3 -3.5,-5.5 -1.5,-2.5 -3,-5.5 -1.5,-3 -3,-6 -1.5,-3 -3.5,-5.5 -2,-2.5 -3,-5 -1,-2.5 -2.5,-5 -1.5,-2.5 -2.5,-5.5 -1,-3 -1.5,-5.5 -0.5,-2.5 -2,-5.5 -1.5,-3 -2,-6 -0.5,-3 -1.5,-6 -1,-3 -1.5,-5.5 -0.5,-2.5 -1.5,-6 -1,-3.5 -1.5,-6 -0.5,-2.5 -1,-6.5 -0.5,-4 -0.5,-7 0,-3 0,-6.5 0,-3.5 0,-7.5 0,-4 0,-8 0,-4 0,-7.5 0,-3.5 0,-6.5 0,-3 0,-6.5 0,-3.5 0.5,-7.000003 0.5,-3.5 1,-6 0.5,-2.5 1,-5 0.5,-2.5 1,-5 0.5,-2.5 1,-5.5 0.5,-3 1.5,-5.5 1,-2.5 1.5,-5 0.5,-2.5 1.5,-5 1,-2.5 2,-5.5 1,-3 2,-5.5 1,-2.5 2,-5 1,-2.5 3,-5 2,-2.5 4,-4.5 2,-2 4,-4 2,-2 4.5,-3.5 2.5,-1.5 5,-3 2.5,-1.5 5,-3 2.5,-1.5 4.5,-3.5 2,-1.999999 4.5,-2.499999 2.5,-0.5 5,-1 2.5,-0.5 5,-1 2.5,-0.5 5,-1.5 2.5,-1 5,-2 2.5,-1.0000001 3.5,1.5 1,2.5 1.5,5 0.5,2.499999 2,4.999999 1.5,2.5 2.5,5 1,2.5 1.5,5 0.5,2.5 1,0 0.5,-2.5 0,-5 -0.5,-2.5 0,-5 0.5,-2.5 3,-3.5 2.5,-0.999999 5,-1.999999 2.5,-1 5.5,-0.5 3,0.5 6,1.5 3,0.999999 5.5,2.999999 2.5,2 4,4.5 1.5,2.5 2.5,5 1,2.5 2.5,5 1.5,2.5 3.5,5 2,2.5 3.5,5 1.5,2.5 3,5 1.5,2.5 2.5,5 1,2.5 2,5 1,2.5 1.5,5 0.5,2.5 0.5,5.5 0,3 -1,5.5 -1,2.5 -3,5 -2,2.5 -4,4.5 -2,2 -4,4"
           style="fill:#020a15;stroke:none"
           id="path13" />
        <path
           d="m 645.42954,181.71749 v -1 l 1,-1 v -1 q 0,0 0.5,-2.5 0.5,-2.5 1,-5 0.5,-2.5 1,-6.5 0.5,-4 1,-7 0.5,-3 0.5,-6 0,-3 0.5,-6 0.5,-3 1,-6.5 0.5,-3.5 1,-8 0.5,-4.5 1,-9 0.5,-4.5 0.5,-8 0,-3.5 0,-6.5 0,-3 0,-7 0,-4.000003 0,-8.000003 0,-4 0,-7 0,-3 0,-6 0,-3 -0.5,-6.5 -0.5,-3.5 -1.5,-6 -1,-2.5 -2,-5 -1,-2.5 -2.5,-5 -1.5,-2.5 -3,-5 -1.5,-2.5 -4,-5.5 -2.5,-3 -4.5,-5 -2,-2 -4.5,-3.5 -2.5,-1.5 -5,-3 -2.5,-1.5 -5,-3 -2.5,-1.5 -5,-3.5 -2.5,-2 -5,-3 -2.5,-1 -5,-2.5 -2.5,-1.5 -4,1.5 -1.5,3 -2,5.5 -0.5,2.5 -1,5 -0.5,2.5 -1.5,5 -1,2.5 -2.5,6.5 -1.5,4 -2,6.5 -0.5,2.5 -2.5,7 -2,4.5 -2.5,7 -0.5,2.5 -1,5 -0.5,2.5 -1.5,5 -1,2.5 -2.5,7 -1.5,4.5 -2.5,9 -1,4.5 -2,8.500003 -1,4 -2,8 -1,4 -2,7.5 -1,3.5 -2,7.5 -1,4 -1.5,7.5 -0.5,3.5 -1,6.5 -0.5,3 -1,5.5 -0.5,2.5 -1,5.5 -0.5,3 -1,6 -0.5,3 -0.5,6.5 0,3.5 0,6.5 0,3 0,6 0,3 0,7.5 0,4.5 1,7 1,2.5 1.5,5.5 0.5,3 1.5,5.5 1,2.5 2.5,6.5 1.5,4 2.5,6.5 1,2.5 2,5 1,2.5 2,5 1,2.5 2,5 1,2.5 2.5,5 1.5,2.5 3,5 1.5,2.5 3.5,5 2,2.5 4,5.5 2,3 3.5,5.5 1.5,2.5 3.5,5 2,2.5 4,5 2,2.5 3.5,5 1.5,2.5 3.5,5 2,2.5 4,4.5 2,2 3,-0.5 1,-2.5 1.5,-5 0.5,-2.5 2.5,-6.5 2,-4 3.5,-7.5 1.5,-3.5 4,-7.5 2.5,-4 4,-6.5 1.5,-2.5 3.5,-5.5 2,-3 3.5,-5.5 1.5,-2.5 3,-5.5 1.5,-3 3,-6 1.5,-3 3.5,-5.5 2,-2.5 3,-5 1,-2.5 2.5,-5 1.5,-2.5 2.5,-5.5 1,-3 1.5,-5.5 0.5,-2.5 2,-5.5 1.5,-3 2,-6 0.5,-3 1.5,-6 1,-3 1.5,-5.5 0.5,-2.5 1.5,-6 1,-3.5 1.5,-6 0.5,-2.5 1,-6.5 0.5,-4 0.5,-7 0,-3 0,-6.5 0,-3.5 0,-7.5 0,-4 0,-8 0,-4 0,-7.5 0,-3.5 0,-6.5 0,-3 0,-6.5 0,-3.5 -0.5,-7.000003 -0.5,-3.5 -1,-6 -0.5,-2.5 -1,-5 -0.5,-2.5 -1,-5 -0.5,-2.5 -1,-5.5 -0.5,-3 -1.5,-5.5 -1,-2.5 -1.5,-5 -0.5,-2.5 -1.5,-5 -1,-2.5 -2,-5.5 -1,-3 -2,-5.5 -1,-2.5 -2,-5 -1,-2.5 -3,-5 -2,-2.5 -4,-4.5 -2,-2 -4,-4 -2,-2 -4.5,-3.5 -2.5,-1.5 -5,-3 -2.5,-1.5 -5,-3 -2.5,-1.5 -4.5,-3.5 -2,-1.999999 -4.5,-2.499999 -2.5,-0.5 -5,-1 -2.5,-0.5 -5,-1 -2.5,-0.5 -5,-1.5 -2.5,-1 -5,-2 -2.5,-1.0000001 -3.5,1.5 -1,2.5 -1.5,5 -0.5,2.499999 -2,4.999999 -1.5,2.5 -2.5,5 -1,2.5 -1.5,5 -0.5,2.5 -1,0 -0.5,-2.5 0,-5 0.5,-2.5 0,-5 -0.5,-2.5 -3,-3.5 -2.5,-0.999999 -5,-1.999999 -2.5,-1 -5.5,-0.5 -3,0.5 -6,1.5 -3,0.999999 -5.5,2.999999 -2.5,2 -4,4.5 -1.5,2.5 -2.5,5 -1,2.5 -2.5,5 -1.5,2.5 -3.5,5 -2,2.5 -3.5,5 -1.5,2.5 -3,5 -1.5,2.5 -2.5,5 -1,2.5 -2,5 -1,2.5 -1.5,5 -0.5,2.5 -0.5,5.5 0,3 1,5.5 1,2.5 3,5 2,2.5 4,4.5 2,2 4,4"
           style="fill:#020a15;stroke:none"
           id="path15" />
        <path
           d="m 616.42954,173.71749 v 1 1 1 q 0,0 0,3 0,3 0,6 0,3 0,6 0,3 0,6 0,3 0,6 0,3 0.5,6 0.5,3 0.5,7.5 0,4.5 0,9.5 0,5 0,8 0,3 1,6 1,3 1.5,6 0.5,3 1,5.5 0.5,2.5 1,5 0.5,2.5 1.5,5 1,2.5 2.5,5 1.5,2.5 3,5 1.5,2.5 3.5,5 2,2.5 4,4.5 2,2 4,4 2,2 4.5,4 2.5,2 5,3.5 2.5,1.5 5,3 2.5,1.5 5,2.5 2.5,1 6,3 3.5,2 6.5,3 3,1 5.5,2 2.5,1 5.5,2 3,1 6.5,2 3.5,1 7.5,2 4,1 7.5,2 3.5,1 6.5,1.5 3,0.5 7,1 4,0.5 7.5,1 3.5,0.5 7,1 3.5,0.5 8,1 4.5,0.5 7,1 2.5,0.5 5,1.5 2.5,1 5,2 2.5,1 5,2 2.5,1 7.5,2.5 5,1.5 8,3 3,1.5 6,3 3,1.5 6.5,3.5 3.5,2 7.5,4 4,2 7,4 3,2 5.5,4 2.5,2 6.5,5 4,3 6.5,4.5 2.5,1.5 5.5,4.5 3,3 5,5 2,2 5,5.5 3,3.5 6,7.5 3,4 4,6.5 1,2.5 3.5,6 2.5,3.5 4,6.5 1.5,3 2.5,5.5 1,2.5 1.5,5 0.5,2.5 1,8.5 0.5,6 0.5,9 0,3 1.5,6.5 1.5,3.5 2,6 0.5,2.5 1.5,5 1,2.5 2,5.5 1,3 1.5,6 0.5,3 1,5.5 0.5,2.5 1.5,5 1,2.5 2,5.5 1,3 1.5,5.5 0.5,2.5 1,5 0.5,2.5 1.5,7 1,4.5 1.5,7 0.5,2.5 1,5.5 0.5,3 1,5.5 0.5,2.5 1,5.5 0.5,3 1,6.5 0.5,3.5 1,6 0.5,2.5 1,5.5 0.5,3 1,5.5 0.5,2.5 1,6 0.5,3.5 1.5,6.5 1,3 1.5,6 0.5,3 1.5,6 1,3 1.5,5.5 0.5,2.5 1.5,5 1,2.5 1.5,5 0.5,2.5 0.5,5.5 0,3 -2.5,1 -2.5,-2 -4.5,-4 -2,-2 -4.5,-4.5 -2.5,-2.5 -5.5,-4.5 -3,-2 -7,-5 -4,-3 -6.5,-5 -2.5,-2 -10.5,-9 -8,-7 -19,-18 -11,-11 -24.5,-25 -13.5,-14 -19,-19.5 -5.5,-5.5 -11.5,-11.5 -6,-6 -8.5,-9 -2.5,-3 -5.5,-7 -3,-4 -5.5,-6 -2.5,-2 -5,-3.5 -2.5,-1.5 -5,-2.5 -2.5,-1 -5,-1.5 -2.5,-0.5 -5.5,-0.5 -3,0 -6,0 -3,0 -6,-0.5 -3,-0.5 -6.5,-0.5 -3.5,0 -7.5,0 -4,0 -7.5,-0.5 -3.5,-0.5 -7,-1 -3.5,-0.5 -6.5,-0.5 -3,0 -5.5,-0.5 -2.5,-0.5 -7,-1.5 -4.5,-1 -7,-1.5 -2.5,-0.5 -5.5,-1.5 -3,-1 -5.5,-2.5 -2.5,-1.5 -5,-3.5 -2.5,-2 -4.5,-4 -2,-2 -4.5,-5.5 -2.5,-3.5 -4,-6 -1.5,-2.5 -3,-5.5 -1.5,-3 -2.5,-6 -1,-3 -2,-5.5 -1,-2.5 -2,-5.5 -1,-3 -1.5,-5.5 -0.5,-2.5 -1,-5 -0.5,-2.5 -1,-5 -0.5,-2.5 -2.5,-5 -2,-2.5 -4.5,-3 -2.5,-0.5 -3.5,-3 -1,-2.5 -1,-5.5 0,-3 -0.5,-5.5 -0.5,-2.5 -0.5,-7 0,-4.5 0,-8 0,-3.5 -0.5,-6 -0.5,-2.5 -1,-5.5 -0.5,-3 -0.5,-7 0,-4 0,-7 0,-3 -0.5,-6 -0.5,-3 -0.5,-6 0,-3 0,-6 0,-3 -0.5,-5.5 -0.5,-2.5 -1,-5 -0.5,-2.5 -1.5,-5 -1,-2.5 -1,-5.5 0,-3 0,-6 0,-3 -0.5,-6 -0.5,-3 -1.5,-5.5 -1,-2.5 -3,-4.5 -2,-2 -3,-4.5 -1,-2.5 -1,-6.5 0,-4 0,-7.5 0,-3.5 0,-7 0,-3.5 0,-7 0,-3.5 0,-6.5 0,-3 0,-6 0,-3 0,-6 0,-3 0,-6 0,-3 0.5,-6"
           style="fill:#020a15;stroke:none"
           id="path17" />
        <path
           d="m 606.42954,173.71749 v 1 1 1 q 0,0 0,3 0,3 0,6 0,3 0,6 0,3 0,6 0,3 0,6 0,3 -0.5,6 -0.5,3 -0.5,7.5 0,4.5 0,9.5 0,5 0,8 0,3 -1,6 -1,3 -1.5,6 -0.5,3 -1,5.5 -0.5,2.5 -1,5 -0.5,2.5 -1.5,5 -1,2.5 -2.5,5 -1.5,2.5 -3,5 -1.5,2.5 -3.5,5 -2,2.5 -4,4.5 -2,2 -4,4 -2,2 -4.5,4 -2.5,2 -5,3.5 -2.5,1.5 -5,3 -2.5,1.5 -5,2.5 -2.5,1 -6,3 -3.5,2 -6.5,3 -3,1 -5.5,2 -2.5,1 -5.5,2 -3,1 -6.5,2 -3.5,1 -7.5,2 -4,1 -7.5,2 -3.5,1 -6.5,1.5 -3,0.5 -7,1 -4,0.5 -7.5,1 -3.5,0.5 -7,1 -3.5,0.5 -8,1 -4.5,0.5 -7,1 -2.5,0.5 -5,1.5 -2.5,1 -5,2 -2.5,1 -5,2 -2.5,1 -7.5,2.5 -5,1.5 -8,3 -3,1.5 -6,3 -3,1.5 -6.5,3.5 -3.5,2 -7.5,4 -4,2 -7,4 -3,2 -5.5,4 -2.5,2 -6.5,5 -4,3 -6.5,4.5 -2.5,1.5 -5.5,4.5 -3,3 -5,5 -2,2 -5,5.5 -3,3.5 -6,7.5 -3,4 -4,6.5 -1,2.5 -3.5,6 -2.5,3.5 -4,6.5 -1.5,3 -2.5,5.5 -1,2.5 -1.5,5 -0.5,2.5 -1,8.5 -0.5,6 -0.5,9 0,3 -1.5,6.5 -1.5,3.5 -2,6 -0.5,2.5 -1.5,5 -1,2.5 -2,5.5 -1,3 -1.5,6 -0.5,3 -1,5.5 -0.5,2.5 -1.5,5 -1,2.5 -2,5.5 -1,3 -1.5,5.5 -0.5,2.5 -1,5 -0.5,2.5 -1.5,7 -1,4.5 -1.5,7 -0.5,2.5 -1,5.5 -0.5,3 -1,5.5 -0.5,2.5 -1,5.5 -0.5,3 -1,6.5 -0.5,3.5 -1,6 -0.5,2.5 -1,5.5 -0.5,3 -1,5.5 -0.5,2.5 -1,6 -0.5,3.5 -1.5,6.5 -1,3 -1.5,6 -0.5,3 -1.5,6 -1,3 -1.5,5.5 -0.5,2.5 -1.5,5 -1,2.5 -1.5,5 -0.5,2.5 -0.5,5.5 0,3 2.5,1 2.5,-2 4.5,-4 2,-2 4.5,-4.5 2.5,-2.5 5.5,-4.5 3,-2 7,-5 4,-3 6.5,-5 2.5,-2 10.5,-9 8,-7 19,-18 11,-11 24.5,-25 13.5,-14 19,-19.5 5.5,-5.5 11.5,-11.5 6,-6 8.5,-9 2.5,-3 5.5,-7 3,-4 5.5,-6 2.5,-2 5,-3.5 2.5,-1.5 5,-2.5 2.5,-1 5,-1.5 2.5,-0.5 5.5,-0.5 3,0 6,0 3,0 6,-0.5 3,-0.5 6.5,-0.5 3.5,0 7.5,0 4,0 7.5,-0.5 3.5,-0.5 7,-1 3.5,-0.5 6.5,-0.5 3,0 5.5,-0.5 2.5,-0.5 7,-1.5 4.5,-1 7,-1.5 2.5,-0.5 5.5,-1.5 3,-1 5.5,-2.5 2.5,-1.5 5,-3.5 2.5,-2 4.5,-4 2,-2 4.5,-5.5 2.5,-3.5 4,-6 1.5,-2.5 3,-5.5 1.5,-3 2.5,-6 1,-3 2,-5.5 1,-2.5 2,-5.5 1,-3 1.5,-5.5 0.5,-2.5 1,-5 0.5,-2.5 1,-5 0.5,-2.5 2.5,-5 2,-2.5 4.5,-3 2.5,-0.5 3.5,-3 1,-2.5 1,-5.5 0,-3 0.5,-5.5 0.5,-2.5 0.5,-7 0,-4.5 0,-8 0,-3.5 0.5,-6 0.5,-2.5 1,-5.5 0.5,-3 0.5,-7 0,-4 0,-7 0,-3 0.5,-6 0.5,-3 0.5,-6 0,-3 0,-6 0,-3 0.5,-5.5 0.5,-2.5 1,-5 0.5,-2.5 1.5,-5 1,-2.5 1,-5.5 0,-3 0,-6 0,-3 0.5,-6 0.5,-3 1.5,-5.5 1,-2.5 3,-4.5 2,-2 3,-4.5 1,-2.5 1,-6.5 0,-4 0,-7.5 0,-3.5 0,-7 0,-3.5 0,-7 0,-3.5 0,-6.5 0,-3 0,-6 0,-3 0,-6 0,-3 0,-6 0,-3 -0.5,-6"
           style="fill:#020a15;stroke:none"
           id="path19" />
        <path
           d="m 607.42954,189.71749 v 1 1 1 q 0,0 0,3 0,3 0.5,6.5 0.5,3.5 1.5,6 1,2.5 3,5 2,2.5 4.5,4.5 2.5,2 5.5,3.5 3,1.5 5.5,3 2.5,1.5 5.5,2.5 3,1 6,3 3,2 5.5,3.5 2.5,1.5 6.5,3 4,1.5 7.5,3.5 3.5,2 7,3.5 3.5,1.5 7,3 3.5,1.5 7,3 3.5,1.5 6.5,3 3,1.5 6.5,3 3.5,1.5 7,2.5 3.5,1 6.5,2.5 3,1.5 6.5,2.5 3.5,1 7,2.5 3.5,1.5 6,3 2.5,1.5 5,2.5 2.5,1 5,2.5 2.5,1.5 5,3 2.5,1.5 6,3.5 3.5,2 6,3.5 2.5,1.5 5,3.5 2.5,2 6,4 3.5,2 6,3.5 2.5,1.5 4.5,3.5 2,2 -0.5,3 -2.5,1 -5,-0.5 -2.5,-1.5 -5,-3.5 -2.5,-2 -5.5,-2 -3,0 -6,0 -3,0 -6.5,0 -3.5,0 -7,0 -3.5,0 -7,-0.5 -3.5,-0.5 -7,-0.5 -3.5,0 -6.5,0 -3,0 -5.5,-0.5 -2.5,-0.5 -5,-1 -2.5,-0.5 -5,-1 -2.5,-0.5 -5,-1.5 -2.5,-1 -5.5,-2 -3,-1 -6,-2 -3,-1 -5.5,-2.5 -2.5,-1.5 -5.5,-2.5 -3,-1 -6,-3 -3,-2 -5.5,-4 -2.5,-2 -4.5,-4 -2,-2 -4.5,-3.5 -2.5,-1.5 -4.5,-3.5 -2,-2 -4.5,-4 -2.5,-2 -5,-4 -2.5,-2 -4.5,-4 -2,-2 -4.5,-4 -2.5,-2 -4.5,-4 -2,-2 -4,-4.5 -2,-2.5 -3.5,-5 -1.5,-2.5 -2.5,-5 -1,-2.5 -1.5,-5 -0.5,-2.5 -1,-5.5 -0.5,-3 -0.5,-6 0,-3 0,-6 0,-3 0,-6 0,-3 -0.5,-5.5"
           style="fill:#020a15;stroke:none"
           id="path21" />
        <path
           d="m 615.42954,275.71749 v 1 1 1 q 0,0 0,3 0,3 -0.5,6.5 -0.5,3.5 -1.5,6 -1,2.5 -3,5 -2,2.5 -4.5,4.5 -2.5,2 -5.5,3.5 -3,1.5 -5.5,3 -2.5,1.5 -5.5,2.5 -3,1 -6,3 -3,2 -5.5,3.5 -2.5,1.5 -6.5,3 -4,1.5 -7.5,3.5 -3.5,2 -7,3.5 -3.5,1.5 -7,3 -3.5,1.5 -7,3 -3.5,1.5 -6.5,3 -3,1.5 -6.5,3 -3.5,1.5 -7,2.5 -3.5,1 -6.5,2.5 -3,1.5 -6.5,2.5 -3.5,1 -7,2.5 -3.5,1.5 -6,3 -2.5,1.5 -5,2.5 -2.5,1 -5,2.5 -2.5,1.5 -5,3 -2.5,1.5 -6,3.5 -3.5,2 -6,3.5 -2.5,1.5 -5,3.5 -2.5,2 -6,4 -3.5,2 -6,3.5 -2.5,1.5 -4.5,3.5 -2,2 0.5,3 2.5,1 5,-0.5 2.5,-1.5 5,-3.5 2.5,-2 5.5,-2 3,0 6,0 3,0 6.5,0 3.5,0 7,0 3.5,0 7,-0.5 3.5,-0.5 7,-0.5 3.5,0 6.5,0 3,0 5.5,-0.5 2.5,-0.5 5,-1 2.5,-0.5 5,-1 2.5,-0.5 5,-1.5 2.5,-1 5.5,-2 3,-1 6,-2 3,-1 5.5,-2.5 2.5,-1.5 5.5,-2.5 3,-1 6,-3 3,-2 5.5,-4 2.5,-2 4.5,-4 2,-2 4.5,-3.5 2.5,-1.5 4.5,-3.5 2,-2 4.5,-4 2.5,-2 5,-4 2.5,-2 4.5,-4 2,-2 4.5,-4 2.5,-2 4.5,-4 2,-2 4,-4.5 2,-2.5 3.5,-5 1.5,-2.5 2.5,-5 1,-2.5 1.5,-5 0.5,-2.5 1,-5.5 0.5,-3 0.5,-6 0,-3 0,-6 0,-3 0,-6 0,-3 0.5,-5.5"
           style="fill:#020a15;stroke:none"
           id="path23" />
        <path
           d="m 615.42954,275.71749 v 1 1 1 q 0,0 0,3.5 0,3.5 0,6.5 0,3 0,7 0,4 0,9 0,5 -0.5,10.5 -0.5,5.5 -0.5,8.5 0,3 0,6 0,3 0,6.5 0,3.5 -0.5,7 -0.5,3.5 -0.5,6.5 0,3 -0.5,7 -0.5,4 -0.5,7.5 0,3.5 -0.5,7 -0.5,3.5 -0.5,7 0,3.5 0,6.5 0,3 0,7 0,4 0,7.5 0,3.5 0,7 0,3.5 0,8.5 0,5 0,11.5 0,6.5 1.5,11.5 1.5,5 2,9 0.5,4 1,7 0.5,3 1,7.5 0.5,4.5 1,9 0.5,4.5 1,9 0.5,4.5 1,8 0.5,3.5 1,6 0.5,2.5 1,5 0.5,2.5 1.5,5 1,2.5 2,5 1,2.5 2,5.5 1,3 2.5,6 1.5,3 3,5.5 1.5,2.5 4.5,6 3,3.5 5.5,5.5 2.5,2 5.5,4 3,2 5.5,4 2.5,2 5,3.5 2.5,1.5 6.5,4.5 4,3 8.5,5 4.5,2 8,4 3.5,2 7.5,4 4,2 7,3 3,1 7.5,3.5 4.5,2.5 7.5,4 3,1.5 6.5,3.5 3.5,2 7,3.5 3.5,1.5 6.5,3.5 3,2 5.5,4 2.5,2 5,3.5 2.5,1.5 5,2 2.5,0.5 6,0.5 3.5,0 6.5,0 3,0 3.5,-2.5 0.5,-2.5 -1.5,-5.5 -2,-3 -4.5,-5.5 -2.5,-2.5 -4.5,-5.5 -2,-3 -4.5,-5.5 -2.5,-2.5 -6,-5.5 -3.5,-3 -6.5,-6 -3,-3 -5,-5 -2,-2 -4.5,-4.5 -2.5,-2.5 -4.5,-5 -2,-2.5 -4.5,-5.5 -2.5,-3 -4,-5.5 -1.5,-2.5 -3.5,-6 -2,-3.5 -3,-6 -1,-2.5 -2,-5 -1,-2.5 -2.5,-5.5 -1.5,-3 -2.5,-6 -1,-3 -2.5,-6 -1.5,-3 -2.5,-6.5 -1,-3.5 -2.5,-7 -1.5,-3.5 -2.5,-7.5 -1,-4 -1.5,-6.5 -0.5,-2.5 -1.5,-5 -1,-2.5 -2,-6.5 -1,-4 -2,-6.5 -1,-2.5 -2,-5.5 -1,-3 -2,-5.5 -1,-2.5 -2,-5 -1,-2.5 -2,-5 -1,-2.5 -1.5,-5 -0.5,-2.5 -1.5,-5.5 -1,-3 -2,-5.5 -1,-2.5 -2,-5 -1,-2.5 -2,-5 -1,-2.5 -2,-5 -1,-2.5 -2.5,-5 -1.5,-2.5 -2.5,-5 -1,-2.5 -2,-5"
           style="fill:#020a15;stroke:none"
           id="path25" />
        <path
           d="m 607.42954,275.71749 v 1 1 1 q 0,0 0,3.5 0,3.5 0,6.5 0,3 0,7 0,4 0,9 0,5 0.5,10.5 0.5,5.5 0.5,8.5 0,3 0,6 0,3 0,6.5 0,3.5 0.5,7 0.5,3.5 0.5,6.5 0,3 0.5,7 0.5,4 0.5,7.5 0,3.5 0.5,7 0.5,3.5 0.5,7 0,3.5 0,6.5 0,3 0,7 0,4 0,7.5 0,3.5 0,7 0,3.5 0,8.5 0,5 0,11.5 0,6.5 -1.5,11.5 -1.5,5 -2,9 -0.5,4 -1,7 -0.5,3 -1,7.5 -0.5,4.5 -1,9 -0.5,4.5 -1,9 -0.5,4.5 -1,8 -0.5,3.5 -1,6 -0.5,2.5 -1,5 -0.5,2.5 -1.5,5 -1,2.5 -2,5 -1,2.5 -2,5.5 -1,3 -2.5,6 -1.5,3 -3,5.5 -1.5,2.5 -4.5,6 -3,3.5 -5.5,5.5 -2.5,2 -5.5,4 -3,2 -5.5,4 -2.5,2 -5,3.5 -2.5,1.5 -6.5,4.5 -4,3 -8.5,5 -4.5,2 -8,4 -3.5,2 -7.5,4 -4,2 -7,3 -3,1 -7.5,3.5 -4.5,2.5 -7.5,4 -3,1.5 -6.5,3.5 -3.5,2 -7,3.5 -3.5,1.5 -6.5,3.5 -3,2 -5.5,4 -2.5,2 -5,3.5 -2.5,1.5 -5,2 -2.5,0.5 -6,0.5 -3.5,0 -6.5,0 -3,0 -3.5,-2.5 -0.5,-2.5 1.5,-5.5 2,-3 4.5,-5.5 2.5,-2.5 4.5,-5.5 2,-3 4.5,-5.5 2.5,-2.5 6,-5.5 3.5,-3 6.5,-6 3,-3 5,-5 2,-2 4.5,-4.5 2.5,-2.5 4.5,-5 2,-2.5 4.5,-5.5 2.5,-3 4,-5.5 1.5,-2.5 3.5,-6 2,-3.5 3,-6 1,-2.5 2,-5 1,-2.5 2.5,-5.5 1.5,-3 2.5,-6 1,-3 2.5,-6 1.5,-3 2.5,-6.5 1,-3.5 2.5,-7 1.5,-3.5 2.5,-7.5 1,-4 1.5,-6.5 0.5,-2.5 1.5,-5 1,-2.5 2,-6.5 1,-4 2,-6.5 1,-2.5 2,-5.5 1,-3 2,-5.5 1,-2.5 2,-5 1,-2.5 2,-5 1,-2.5 1.5,-5 0.5,-2.5 1.5,-5.5 1,-3 2,-5.5 1,-2.5 2,-5 1,-2.5 2,-5 1,-2.5 2,-5 1,-2.5 2.5,-5 1.5,-2.5 2.5,-5 1,-2.5 2,-5"
           style="fill:#020a15;stroke:none"
           id="path27" />
        <path
           d="m 612.42954,266.71749 v 1 1 1 q 0,0 0,3 0,3 0.5,5.5 0.5,2.5 0.5,5.5 0,3 0.5,5.5 0.5,2.5 1,5.5 0.5,3 1,6 0.5,3 1.5,5.5 1,2.5 2,5.5 1,3 2,5.5 1,2.5 1.5,5 0.5,2.5 2.5,5.5 2,3 3.5,5.5 1.5,2.5 2.5,5 1,2.5 2,5 1,2.5 2.5,5 1.5,2.5 3.5,4.5 2,2 3,4.5 1,2.5 3,4.5 2,2 4,4 2,2 6.5,6 4.5,4 7.5,6 3,2 5.5,4.5 2.5,2.5 5.5,5 3,2.5 6,4 3,1.5 5.5,3.5 2.5,2 5,4 2.5,2 5,3.5 2.5,1.5 5,3 2.5,1.5 5,3 2.5,1.5 5.5,3 3,1.5 6.5,4 3.5,2.5 6,4.5 2.5,2 5,3.5 2.5,1.5 5,2.5 2.5,1 5,3 2.5,2 5,4 2.5,2 4.5,4 2,2 -0.5,3.5 -2.5,1.5 -5.5,2 -3,0.5 -6,0.5 -3,0 -5.5,0.5 -2.5,0.5 -6.5,0.5 -4,0 -7.5,0 -3.5,0 -7,0 -3.5,0 -8,0 -4.5,0 -8.5,0 -4,0 -6.5,-0.5 -2.5,-0.5 -5,-1.5 -2.5,-1 -5,-2.5 -2.5,-1.5 -5,-2.5 -2.5,-1 -5,-2 -2.5,-1 -5,-2.5 -2.5,-1.5 -5,-2.5 -2.5,-1 -5,-3 -2.5,-2 -5,-3.5 -2.5,-1.5 -5,-3 -2.5,-1.5 -4.5,-3.5 -2,-2 -4,-4 -2,-2 -3,-4.5 -1,-2.5 -1.5,-5"
           style="fill:#020a15;stroke:none"
           id="path33" />
        <path
           d="m 610.42954,180.71749 v 1 1 1 q 0,0 0,3 0,3 -0.5,5.5 -0.5,2.5 -0.5,5.5 0,3 -0.5,5.5 -0.5,2.5 -1,5.5 -0.5,3 -1,6 -0.5,3 -1.5,5.5 -1,2.5 -2,5.5 -1,3 -2,5.5 -1,2.5 -1.5,5 -0.5,2.5 -2.5,5.5 -2,3 -3.5,5.5 -1.5,2.5 -2.5,5 -1,2.5 -2,5 -1,2.5 -2.5,5 -1.5,2.5 -3.5,4.5 -2,2 -3,4.5 -1,2.5 -3,4.5 -2,2 -4,4 -2,2 -6.5,6 -4.5,4 -7.5,6 -3,2 -5.5,4.5 -2.5,2.5 -5.5,5 -3,2.5 -6,4 -3,1.5 -5.5,3.5 -2.5,2 -5,4 -2.5,2 -5,3.5 -2.5,1.5 -5,3 -2.5,1.5 -5,3 -2.5,1.5 -5.5,3 -3,1.5 -6.5,4 -3.5,2.5 -6,4.5 -2.5,2 -5,3.5 -2.5,1.5 -5,2.5 -2.5,1 -5,3 -2.5,2 -5,4 -2.5,2 -4.5,4 -2,2 0.5,3.5 2.5,1.5 5.5,2 3,0.5 6,0.5 3,0 5.5,0.5 2.5,0.5 6.5,0.5 4,0 7.5,0 3.5,0 7,0 3.5,0 8,0 4.5,0 8.5,0 4,0 6.5,-0.5 2.5,-0.5 5,-1.5 2.5,-1 5,-2.5 2.5,-1.5 5,-2.5 2.5,-1 5,-2 2.5,-1 5,-2.5 2.5,-1.5 5,-2.5 2.5,-1 5,-3 2.5,-2 5,-3.5 2.5,-1.5 5,-3 2.5,-1.5 4.5,-3.5 2,-2 4,-4 2,-2 3,-4.5 1,-2.5 1.5,-5"
           style="fill:#020a15;stroke:none"
           id="path35" />
        <path
           id="path61"
           style="fill:#020a15;stroke:none"
           d="m 606.92954,195.71749 v 1 1 1 q 0,0 0,3 0,3 -0.5,6.5 -0.5,3.5 -1.5,6 -1,2.5 -3,5 -2,2.5 -4.5,4.5 -2.5,2 -5.5,3.5 -3,1.5 -5.5,3 -2.5,1.5 -5.5,2.5 -3,1 -6,3 -3,2 -5.5,3.5 -2.5,1.5 -6.5,3 -4,1.5 -7.5,3.5 -3.5,2 -7,3.5 -3.5,1.5 -7,3 -3.5,1.5 -7,3 -3.5,1.5 -6.5,3 -3,1.5 -6.5,3 -3.5,1.5 -7,2.5 -3.5,1 -6.5,2.5 -3,1.5 -6.5,2.5 -3.5,1 -7,2.5 -3.5,1.5 -6,3 -2.5,1.5 -5,2.5 -2.5,1 -5,2.5 -2.5,1.5 -5,3 -2.5,1.5 -6,3.5 -3.5,2 -6,3.5 -2.5,1.5 -5,3.5 -2.5,2 -6,4 -3.5,2 -6,3.5 -2.5,1.5 -4.5,3.5 -2,2 0.5,3 2.5,1 5,-0.5 2.5,-1.5 5,-3.5 2.5,-2 5.5,-2 3,0 6,0 3,0 6.5,0 3.5,0 7,0 3.5,0 7,-0.5 3.5,-0.5 7,-0.5 3.5,0 6.5,0 3,0 5.5,-0.5 2.5,-0.5 5,-1 2.5,-0.5 5,-1 2.5,-0.5 5,-1.5 2.5,-1 5.5,-2 3,-1 6,-2 3,-1 5.5,-2.5 2.5,-1.5 5.5,-2.5 3,-1 6,-3 3,-2 5.5,-4 2.5,-2 4.5,-4 2,-2 4.5,-3.5 2.5,-1.5 4.5,-3.5 2,-2 4.5,-4 2.5,-2 5,-4 2.5,-2 4.5,-4 2,-2 4.5,-4 2.5,-2 4.5,-4 2,-2 4,-4.5 2,-2.5 3.5,-5 1.5,-2.5 2.5,-5 1,-2.5 1.5,-5 0.5,-2.5 1,-5.5 0.5,-3 0.5,-6 0,-3 0,-6 0,-3 0,-6 0,-3 0.5,-5.5" />
      </g>
    </g>
  </g>
</svg>
