<?xml version="1.0" encoding="UTF-8" standalone="no"?>
<svg
   xmlns:dc="http://purl.org/dc/elements/1.1/"
   xmlns:cc="http://creativecommons.org/ns#"
   xmlns:rdf="http://www.w3.org/1999/02/22-rdf-syntax-ns#"
   xmlns:svg="http://www.w3.org/2000/svg"
   xmlns="http://www.w3.org/2000/svg"
   xmlns:sodipodi="http://sodipodi.sourceforge.net/DTD/sodipodi-0.dtd"
   xmlns:inkscape="http://www.inkscape.org/namespaces/inkscape"
   style="fill-opacity:1; color-rendering:auto; color-interpolation:auto; stroke:black; text-rendering:auto; stroke-linecap:square; stroke-miterlimit:10; stroke-opacity:1; shape-rendering:auto; fill:black; stroke-dasharray:none; font-weight:normal; stroke-width:1; font-family:'Dialog'; font-style:normal; stroke-linejoin:miter; font-size:12; stroke-dashoffset:0; image-rendering:auto;"
   width="1280"
   height="778"
   version="1.1"
   id="svg37"
   sodipodi:docname="moth1.svg"
   inkscape:version="1.0 (4035a4f, 2020-05-01)"
   inkscape:export-filename="/Users/leannesuenfa/Documents/GitHub/cart253/Project/midterm/assets/images/moth.png"
   inkscape:export-xdpi="96"
   inkscape:export-ydpi="96">
  <metadata
     id="metadata41">
    <rdf:RDF>
      <cc:Work
         rdf:about="">
        <dc:format>image/svg+xml</dc:format>
        <dc:type
           rdf:resource="http://purl.org/dc/dcmitype/StillImage" />
        <dc:title></dc:title>
      </cc:Work>
    </rdf:RDF>
  </metadata>
  <sodipodi:namedview
     inkscape:document-rotation="0"
     pagecolor="#ffffff"
     bordercolor="#666666"
     borderopacity="1"
     objecttolerance="10"
     gridtolerance="10"
     guidetolerance="10"
     inkscape:pageopacity="0"
     inkscape:pageshadow="2"
     inkscape:window-width="1280"
     inkscape:window-height="778"
     id="namedview39"
     showgrid="false"
     inkscape:zoom="0.34711758"
     inkscape:cx="967.57781"
     inkscape:cy="255.70082"
     inkscape:window-x="0"
     inkscape:window-y="0"
     inkscape:window-maximized="0"
     inkscape:current-layer="svg37" />
  <!--Generated by Alchemy (http://al.chemy.org) with Batik SVG Generator-->
  <defs
     id="genericDefs" />
  <path
     id="path138"
     style="fill:#ff8080;stroke:none;stroke-width:2.53122"
     d="m 489.89979,692.32852 c 1.01821,-39.78825 0.87401,-83.7638 31.16,-113.98593 9.59526,-28.80813 74.72797,-42.51239 65.25308,-61.82679 C 500.61419,485.46733 416.67177,448.3479 342.21336,395.13465 237.08198,329.99576 162.76277,224.80551 113.00347,113.47192 81.975899,64.055164 129.48514,43.535994 167.91618,71.864734 c 75.28386,24.2624 150.46119,49.655416 220.11608,87.759806 56.94088,27.04745 111.8789,61.84297 148.05341,114.83111 40.05192,50.8496 80.08001,101.83339 109.80834,159.67594 12.1496,41.05747 27.78845,15.9761 39.34507,-9.90749 36.11566,-67.47576 85.05127,-126.74938 134.12284,-185.04277 55.90413,-58.83074 134.81762,-86.71748 206.46038,-121.07629 56.9335,-23.391916 116.4161,-40.148436 174.4311,-60.525186 48.478,11.99392 -1.5479,80.760386 -14.2649,110.730026 -51.0865,93.32639 -120.4018,179.07981 -213.09548,233.64056 -71.75692,50.76308 -153.10852,84.86028 -235.18021,115.06711 -5.56952,18.64491 57.15688,32.41598 66.8769,61.92213 30.28599,30.26274 30.92075,74.23299 30.30954,114.09334 -49.75606,-10.98866 -78.76812,-58.77747 -116.02734,-89.72 -25.95127,-28.11274 -61.59402,-68.40333 -90.31739,-20.85642 -40.73995,34.92383 -73.66562,80.59236 -121.49886,106.12487 -4.85531,-0.48262 -12.23199,7.201 -17.15587,3.74705 z" />
</svg>
