<?xml version="1.0" encoding="UTF-8" standalone="no"?>
<svg
   xmlns:dc="http://purl.org/dc/elements/1.1/"
   xmlns:cc="http://creativecommons.org/ns#"
   xmlns:rdf="http://www.w3.org/1999/02/22-rdf-syntax-ns#"
   xmlns:svg="http://www.w3.org/2000/svg"
   xmlns="http://www.w3.org/2000/svg"
   xmlns:sodipodi="http://sodipodi.sourceforge.net/DTD/sodipodi-0.dtd"
   xmlns:inkscape="http://www.inkscape.org/namespaces/inkscape"
   style="font-style:normal;font-weight:normal;font-size:12px;font-family:Dialog;color-interpolation:auto;fill:#000000;fill-opacity:1;stroke:#000000;stroke-width:1;stroke-linecap:square;stroke-linejoin:miter;stroke-miterlimit:10;stroke-dasharray:none;stroke-dashoffset:0;stroke-opacity:1;color-rendering:auto;image-rendering:auto;shape-rendering:auto;text-rendering:auto"
   width="0.44999999in"
   height="0.40000001in"
   version="1.1"
   id="svg33"
   sodipodi:docname="specialFish2.svg"
   inkscape:version="1.0 (4035a4f, 2020-05-01)">
  <metadata
     id="metadata37">
    <rdf:RDF>
      <cc:Work
         rdf:about="">
        <dc:format>image/svg+xml</dc:format>
        <dc:type
           rdf:resource="http://purl.org/dc/dcmitype/StillImage" />
        <dc:title></dc:title>
      </cc:Work>
    </rdf:RDF>
  </metadata>
  <sodipodi:namedview
     inkscape:document-rotation="0"
     pagecolor="#ffffff"
     bordercolor="#666666"
     borderopacity="1"
     objecttolerance="10"
     gridtolerance="10"
     guidetolerance="10"
     inkscape:pageopacity="0"
     inkscape:pageshadow="2"
     inkscape:window-width="1280"
     inkscape:window-height="763"
     id="namedview35"
     showgrid="false"
     units="in"
     inkscape:zoom="3.2060144"
     inkscape:cx="94.433779"
     inkscape:cy="48.828584"
     inkscape:window-x="0"
     inkscape:window-y="0"
     inkscape:window-maximized="0"
     inkscape:current-layer="g29" />
  <!--Generated by Alchemy (http://al.chemy.org) with Batik SVG Generator-->
  <defs
     id="genericDefs" />
  <g
     id="g31">
    <g
       style="fill:#ffffff;stroke:#ffffff;text-rendering:optimizeLegibility"
       id="g29">
      <g
         style="fill:#87cdde;fill-opacity:0.5"
         id="g47"
         transform="matrix(0.10543697,0,0,0.12213633,-46.039334,-23.281428)">
        <path
           id="path13"
           style="fill:#87cdde;fill-opacity:0.5;stroke:none"
           d="m 648,317 c 9.79511,-47.87389 53.39739,-84.08742 99.95592,-94.11253 27.29303,-6.02518 58.20304,1.70095 76.5171,23.60847 18.27205,35.08285 6.97038,77.69517 -15.66319,107.90002 C 774.06028,406.77185 700.40846,441.15164 636.5,464.5"
           sodipodi:nodetypes="ccccc" />
        <path
           id="path15"
           style="fill:#87cdde;fill-opacity:0.5;stroke:none"
           d="m 632,317 c -9.79511,-47.87389 -53.39739,-84.08742 -99.95592,-94.11253 -27.29303,-6.02518 -58.20304,1.70095 -76.5171,23.60847 -18.27205,35.08285 -6.97038,77.69517 15.66319,107.90002 C 512.15283,411.43168 579.59154,441.15164 643.5,464.5"
           sodipodi:nodetypes="ccccc" />
        <path
           id="path17"
           style="fill:#87cdde;fill-opacity:0.5;stroke:none"
           d="M 641,447 C 615.08969,402.39607 615.0011,340.61323 648.16114,299.63013 663.65034,280.90276 687.40664,270.57239 711.5,270" />
        <path
           id="path19"
           style="fill:#87cdde;fill-opacity:0.5;stroke:none"
           d="M 639,447 C 664.91031,402.39607 664.9989,340.61323 631.83886,299.63013 616.34966,280.90276 592.59336,270.57239 568.5,270" />
        <path
           id="path21"
           style="fill:#87cdde;fill-opacity:0.5;stroke:none"
           d="M 625,376 C 617.53973,321.16965 650.42048,267.85881 694.51114,237.61693 723.25525,217.77148 759.7269,206.61677 794.51129,214.08019 829.29026,229.41548 846.15777,279.50749 820.5,310" />
        <path
           id="path23"
           style="fill:#87cdde;fill-opacity:0.5;stroke:none"
           d="M 655,376 C 662.46027,321.16965 629.57952,267.85881 585.48886,237.61693 556.74475,217.77148 520.2731,206.61677 485.48871,214.08019 450.70974,229.41548 433.84223,279.50749 459.5,310" />
        <path
           id="path25"
           style="fill:#87cdde;fill-opacity:0.5;stroke:none"
           d="M 644,487 C 596.13676,459.19832 542.95505,425.98132 505.4822,383.80605 c -18.2715,-20.03477 -27.06879,-39.36341 -15.23959,-64.85489 6.85211,-14.36172 15.41542,-34.76173 34.97771,-29.63656 28.30141,3.47099 42.91455,31.22961 59.4093,51.04384 14.85897,20.04662 37.69263,37.65177 64.05961,34.52293 17.8778,-1.04016 36.35853,2.70445 54.03983,-2.66069 C 716.15263,368.94828 728.98459,362.62302 739,353"
           sodipodi:nodetypes="cccccccc" />
        <path
           id="path27"
           style="fill:#87cdde;fill-opacity:0.5;stroke:none"
           d="M 644,487 C 691.86324,459.19832 737.04495,436.85426 774.5178,394.67899 792.7893,374.64422 832.3292,335.49148 820.5,310 c -6.85211,-14.36173 -46.15803,-25.81057 -65.72032,-20.6854 -28.30142,3.47099 -42.91455,31.22961 -59.4093,51.04384 -14.85897,20.04662 -37.69263,37.65177 -64.05961,34.52293 -17.8778,-1.04016 -36.35852,2.70445 -54.03983,-2.66069 C 563.84737,368.94828 551.01541,362.62301 541,353"
           sodipodi:nodetypes="cccccccc" />
      </g>
    </g>
  </g>
</svg>
